<?xml version="1.0" encoding="utf-8"?>
<svg version="1.1" id="Ebene_1" xmlns="http://www.w3.org/2000/svg" xmlns:xlink="http://www.w3.org/1999/xlink" x="0px" y="0px"
	 viewBox="0 0 743.8 422.3" style="enable-background:new 0 0 743.8 422.3;" xml:space="preserve">
<style type="text/css">
	.st0{fill:none;stroke:#1D1D1B;stroke-width:0.2835;stroke-linecap:round;stroke-miterlimit:11.3386;}
</style>
<path id="front_outsideCutPath" vector-effect="non-scaling-stroke" class="st0" d="M0.1,345.7v19.8h11.3v36.9H0.1v19.8h35.4v-11.3
	h36.9v11.3h36.9v-11.3h36.9v11.3H183v-11.3h36.9v11.3h35.4v-19.8H244v-36.9h11.3v-19.8h-35.4V357H183v-11.3h-36.9V357h-36.9v-11.3
	H72.4V357H35.6v-11.3H0.1z"/>
<path id="left_outsideCutPath" vector-effect="non-scaling-stroke" class="st0" d="M275.1,345.7v19.8h-11.3v36.9h11.3v19.8H319
	v-11.3h36.9v11.3h36.9v-11.3h36.9v11.3h36.9v-11.3h36.9v11.3h36.9v-11.3H577v11.3h36.9h7.1v-19.8h11.3v-36.9H621v-19.8h-44V357
	h-36.9v-11.3h-36.9V357h-36.9v-11.3h-36.9V357h-36.9v-11.3h-36.9V357H319v-11.3h-36.9H275.1z"/>
<path id="top_outsideCutPath" vector-effect="non-scaling-stroke" class="st0" d="M385.3,243.9h43.9v11.3h36.9v-11.3H503v11.3h36.9
	v-11.3h36.9v11.3h36.9v-11.3h36.9v11.3h36.9v-11.3H724h7.1v-24.1h11.3V183h-11.3v-36.9h11.3v-36.9h-11.3V72.4h11.3V35.6h-11.3V11.5
	h-43.9V0.1h-36.9v11.3h-36.9V0.1h-36.9v11.3h-36.9V0.1h-36.9v11.3h-36.9V0.1h-36.9v11.3H392h-7.1v24.1H374v36.9h11.3v36.9H374v36.9
	h11.3V183H374v36.9h11.3V243.9z"/>
<path id="back_outsideCutPath" vector-effect="non-scaling-stroke" class="st0" d="M0.1,260.6v19.8h11.3v36.9H0.1v19.8h35.4v-11.3
	h36.9v11.3h36.9v-11.3h36.9v11.3H183v-11.3h36.9v11.3h35.4v-19.8H244v-36.9h11.3v-19.8h-35.4V272H183v-11.3h-36.9V272h-36.9v-11.3
	H72.4V272H35.6v-11.3H0.1V260.6z"/>
<path id="bottom_outsideCutPath" vector-effect="non-scaling-stroke" class="st0" d="M13.3,245.7h43.9V257h36.9v-11.3H131V257h36.9
	v-11.3h36.9V257h36.9v-11.3h36.9V257h36.9v-11.3H352h7.1v-24.1h11.3v-36.9h-11.3v-36.9h11.3V111h-11.3V74.2h11.3V37.3h-11.3V13.2
	h-43.9V1.9h-36.9v11.3h-36.9V1.9h-36.9v11.3h-36.9V1.9h-36.9v11.3H94.1V1.9H57.2v11.3H20.4h-7.1v24.1H2v36.9h11.3V111H2v36.9h11.3
	v36.9H2v36.9h11.3V245.7z"/>
<path class="st0" d="M621,280.4v-19.8h-44V272h-36.9v-11.3h-36.9V272h-36.9v-11.3h-36.9V272h-36.9v-11.3h-36.9V272H319v-11.3h-36.9
	h-7v19.7h-11.3v36.9h11.3v19.8H319v-11.3h36.9v11.3h36.9v-11.3h35.1c1.5-9.8,9.9-17.3,20.1-17.3s18.6,7.5,20.1,17.3h35.4v11.3h36.9
	v-11.3H577v11.3h36.9h7.1v-19.8h11.3v-36.9H621z"/>
<circle class="st0" cx="677.4" cy="90.7" r="7.1"/>
<circle class="st0" cx="623.2" cy="90.7" r="7.1"/>
<circle class="st0" cx="569" cy="90.7" r="7.1"/>
<ellipse transform="matrix(0.2298 -0.9732 0.9732 0.2298 308.2495 570.89)" class="st0" cx="514.8" cy="90.7" rx="7.1" ry="7.1"/>
<circle class="st0" cx="439.1" cy="90.7" r="7.1"/>
<circle class="st0" cx="520.3" cy="165.9" r="7.1"/>
<circle class="st0" cx="596.1" cy="165.9" r="7.1"/>
<g>
	<path class="st0" d="M116.9,133.4h-7v23.7H102v-55.3h10.9l4,7.9h-7v15.8h3L116.9,133.4z M122.4,132.7l-3.6-7.3c4-0.5,7-3.8,7-7.8
		c0-1.3-0.2-2.5-0.8-3.5l-6.2-12.3c8.3,0.5,14.9,7.4,14.9,15.8C133.6,124.7,128.9,130.7,122.4,132.7z"/>
	<path class="st0" d="M150.8,145.2h-9l-2.5,11.9h-8.1l11.1-51.8l4,18.9l-2.9,13.2h5.6L150.8,145.2z M166.8,157.1h-8.1l-11.9-55.3
		h8.1L166.8,157.1z"/>
	<path class="st0" d="M186.1,157.1h-14.9v-55.3h10.9l4,7.9h-7v15.8h3l4,7.9h-7v15.8h3L186.1,157.1z M191.6,156.5l-3.6-7.3
		c4-0.5,7-3.8,7-7.8c0-1.3-0.2-2.5-0.8-3.6l-6.2-12.4c4-0.5,7-3.8,7-7.8c0-1.3-0.2-2.5-0.8-3.5l-6.2-12.3
		c8.3,0.5,14.9,7.4,14.9,15.8c0,5.1-2.4,9.3-6.1,11.9c3.7,2.6,6.1,6.8,6.1,11.9C202.8,148.5,198.1,154.5,191.6,156.5z"/>
	<path class="st0" d="M224.7,157.1h-14.9v-55.3h7.9v47.4h3L224.7,157.1z M237.4,157.1h-7l-4-7.9h10.9v7.9H237.4z"/>
	<path class="st0" d="M253.7,109.7c-4,0.5-7,3.8-7,7.8v23.8c0,1.3,0.2,2.5,0.8,3.5l6.1,12.2c-8.3-0.5-14.8-7.3-14.8-15.7v-23.8
		c0-7.1,4.8-13.2,11.3-15.1L253.7,109.7z M270.4,141.3c0,7.1-4.8,13.2-11.3,15.1l-3.6-7.3c4-0.5,7-3.8,7-7.8v-23.8
		c0-1.3-0.2-2.5-0.8-3.5l-6.2-12.3c8.3,0.5,14.9,7.4,14.9,15.8L270.4,141.3L270.4,141.3z"/>
</g>
</svg>
